<svg xmlns="http://www.w3.org/2000/svg" width="512" height="512" viewBox="0 0 512 512"><path fill="#333" fill-rule="evenodd" d="M222.637 71.465c-2.124.757-5.151 2.612-6.727 4.121-4.215 4.039-5.285 8.37-4.522 18.305.566 7.361 1.02 8.925 3.27 11.274 2.453 2.56 2.583 3.183 2.131 10.221-.47 7.318-2.396 12.262-5.097 13.084-11.651 3.545-17.471 8.34-24.312 20.03-5.483 9.368-5.759 11.042-3.511 21.272 1.054 4.8 2.387 12.9 2.961 18 1.418 12.6 3.968 17.418 16.182 30.575l10.069 10.847-3.15 5.583c-2.739 4.852-3.071 6.213-2.541 10.403l1.216 9.599c.399 3.143-.115 8.258-1.5 14.942-1.158 5.59-2.106 11.105-2.106 12.255s-1.151 4.362-2.557 7.137l-2.558 5.047 2.608 3.42c2.87 3.762 3.5 4.017 5.378 2.17 1.94-1.907.89 24.091-1.261 31.25-.909 3.025-1.93 8.875-2.269 13-.35 4.269-2.14 12.239-4.154 18.5-4.452 13.838-4.597 20.722-.751 35.5 2.34 8.991 2.703 12.225 2.526 22.5-.227 13.15.819 20.975 3.974 29.725 1.135 3.149 2.064 6.434 2.064 7.3 0 5.991 9.412 12.475 18.107 12.475 5.215 0 15.361-3.36 18.248-6.042 2.77-2.574 1.36-6.93-4.694-14.496-7.718-9.645-14.468-22.063-15.768-29.007-1.611-8.604-.573-21.505 2.489-30.955 2.201-6.792 2.594-9.826 2.605-20.087.011-10.466.407-13.401 2.953-21.881 1.618-5.386 4.762-13.447 6.989-17.913 4.021-8.066 6.071-15.643 6.071-22.441 0-2.243.782-4.382 2.127-5.813l2.126-2.263 4.969 8.199c3.797 6.265 5.273 9.907 6.258 15.439 1.48 8.32 9.377 26.088 10.681 24.033 1.396-2.198.931-4.727-2.161-11.773-1.662-3.786-3-8.585-3-10.758 0-5.275-4.94-14.921-11.083-21.643-2.705-2.959-4.917-5.931-4.917-6.606 0-1.282.712-1.154 7.516 1.355 6.285 2.318 15.661-.156 24.683-6.51l2.699-1.901.518 3.281c.285 1.805.66 6.544.834 10.532.26 5.98.047 7.252-1.217 7.261-.923.007-2.329 2.096-3.533 5.25-1.673 4.381-2.408 5.239-4.491 5.239-1.79 0-3.189-1.079-4.972-3.834-1.364-2.109-2.632-3.38-2.817-2.825-.412 1.235 3.339 8.769 4.823 9.685 2.2 1.361 6.039-.692 8.638-4.62l2.684-4.056 1.446 2.759c1.144 2.182 1.267 4.446.588 10.825-1.496 14.07.283 63.354 2.488 68.898 1.382 3.475 18.663 22.33 22.113 24.126 1.375.715 4.075 1.63 6 2.033 3.755.785 7 3.094 7 4.98 0 .638-1.85 2.201-4.112 3.472-3.569 2.006-4.951 2.224-10.476 1.658-3.501-.358-8.513-1.621-11.138-2.807-3.857-1.74-6.441-2.119-13.453-1.972-4.773.101-9.901-.282-11.396-.85l-2.717-1.034.57-8.719c.313-4.795 1.054-9.986 1.646-11.534s1.076-7.623 1.075-13.5c-.001-9.75-.258-11.23-2.944-16.906-3.48-7.356-5.049-15.006-5.07-24.713-.016-7.078-1.068-10.859-2.416-8.678-.374.606-.945 5.774-1.269 11.486l-.588 10.384 4.574 9.871c6.102 13.168 6.548 17.606 3.275 32.604-3.815 17.479-3.389 20.688 3.111 23.403 2.556 1.068 5.329 1.288 10.195.808 5.82-.573 7.472-.327 12.781 1.908 3.354 1.411 8.995 2.863 12.536 3.226 5.715.585 7.084.354 12.196-2.065 3.565-1.686 6.194-3.679 6.901-5.231 1.03-2.261.792-2.827-2.434-5.783-2.319-2.126-5.103-3.535-7.924-4.012-3.793-.641-5.583-1.987-14.04-10.556-5.756-5.834-10.126-11.164-10.76-13.127-1.936-5.99-3.966-50.423-3.166-69.304.163-3.85-.376-13.975-1.198-22.5l-1.495-15.5 2.38-2.841 2.38-2.841-2.418-2.874c-1.33-1.581-2.736-4.803-3.123-7.159-.388-2.357-2.267-8.308-4.176-13.224-3.193-8.222-3.417-9.49-2.784-15.792.631-6.278.476-7.173-1.854-10.692-4.737-7.16-6.143-33.077-1.793-33.077.904 0 2.198.888 2.875 1.974 1.818 2.91 14.359 11.026 17.038 11.026 6.113 0 15.613-9.379 20.802-20.537 3.49-7.504 4.672-11.745 6.44-23.098l1.111-7.135 6.078-.44c5.28-.381 6.447-.853 8.894-3.592 10.335-11.567 5.892-38.811-7.215-44.24-6.287-2.604-14.304 1.598-17.291 9.064-1.252 3.128-2.277 4.162-4.588 4.624-2.953.591-5.787 2.92-4.779 3.928.289.289 3.264-.397 6.611-1.524s6.485-2.05 6.974-2.05c.978 0 6.174 18.369 6.174 21.824 0 1.187-1.078 5.425-2.396 9.417s-3.07 10.859-3.893 15.259c-.824 4.4-2.477 10.584-3.674 13.743C311.182 198.42 300.892 210 295.705 210c-2.643 0-13.64-8.225-15.728-11.764-1.226-2.077-1.977-5.166-1.977-8.126 0-5.416-1.881-16.069-3.122-17.68-.454-.589-.358-3.964.212-7.5s.785-8.005.478-9.93c-.385-2.413.191-1.522 1.853 2.866 3.834 10.122 11.34 16.177 18.384 14.831l2.655-.508-2.61 1.902c-3.165 2.306-10.572 13.453-11.813 17.778-1.149 4.009-.534 3.992 1.552-.042.903-1.744 5.932-7.594 11.177-13s9.221-9.827 8.835-9.827-2.14.728-3.901 1.617l-3.2 1.617 3.199-3.367c6.484-6.823 7.468-12.7 4.681-27.934-1.345-7.351-2.196-9.526-5.016-12.821-4.274-4.993-8.766-6.619-14.226-5.149-4.012 1.08-8.426 5.217-9.636 9.032-.35 1.103-1.132 2.005-1.737 2.005s-4.846-2.025-9.423-4.5c-4.578-2.475-9.651-4.5-11.273-4.5-1.623 0-3.165-.347-3.427-.77s.383-4.362 1.433-8.75c2.424-10.129 2.424-17.799.001-28.885-2.082-9.529-4.217-12.848-9.794-15.224-4.102-1.748-15.625-1.696-20.645.094m5.302 1.9c-9.138 2.464-13.147 7.021-14.416 16.385-.67 4.946-.585 5.25 1.471 5.25 1.987 0 2.122.353 1.514 3.953-.634 3.753-.47 4.093 3.259 6.748 2.159 1.537 5.097 4.893 6.529 7.456 2.231 3.997 3.425 4.969 8.377 6.822 12.423 4.648 14.388 3.689 16.777-8.187 1.973-9.813 1.925-13.373-.325-23.597-1.555-7.068-2.401-8.893-5.679-12.25-3.403-3.486-4.381-3.937-8.399-3.878-2.501.038-6.6.621-9.108 1.298m-9.244 43.431c-.33 4.287-.869 8.493-1.196 9.346-.328.853-3.838 3.176-7.802 5.161-8.096 4.056-12.37 8.089-19.085 18.01-6.399 9.453-6.335 12.753.491 25.377 2.806 5.191 4.886 9.654 4.622 9.919-.265.264-1.899-.937-3.632-2.67l-3.15-3.15.661 4.355c.364 2.396 1.765 7.956 3.113 12.356 2.263 7.383 2.994 8.526 9.47 14.814 3.86 3.748 7.23 6.602 7.489 6.343.748-.748-2.43-6.307-5.798-10.144-3.657-4.165-2.369-4.639 2.188-.804 3.017 2.538 6.863 9.238 6.912 12.041.012.688-.962 1.25-2.165 1.25-2.088 0-2.053.141.75 3.088 4.263 4.481 16.063 11.166 18.401 10.423 6.343-2.013 14.568-17.851 16.133-31.067.582-4.919 1.924-15.706 2.981-23.97 2.54-19.859 2.513-20.533-.954-23.855-2.441-2.338-3.415-2.655-6.431-2.089-1.955.367-3.749 1.185-3.987 1.818-.238.634.12 4.378.794 8.322 2.121 12.398-1.296 23.442-8.726 28.199-3.367 2.157-3.158 2.942.292 1.096 4.665-2.497.851 3.943-8.316 14.042-4.486 4.941-5.75 5.873-5.75 4.24 0-1.152 1.486-4.041 3.302-6.42 1.817-2.38 4.014-5.754 4.884-7.498 1.561-3.13 1.548-3.179-1.052-3.811-4.711-1.145-9.965-5.371-12.737-10.246-1.493-2.624-3.43-5.386-4.306-6.137-.935-.802-1.16-1.53-.545-1.765.641-.246.887-2.917.633-6.893-.492-7.727 1.035-14.599 4.379-19.706 1.343-2.05 2.442-3.872 2.442-4.049 0-1.191-7.926.891-9.746 2.56-2.794 2.562-3.2 2.133-2.042-2.16l.911-3.377 7.274.467c4.001.256 7.781.78 8.401 1.163.717.443-.313 1.999-2.829 4.272-6.518 5.889-8.427 15.335-5.427 26.854 4.232 16.246 17.449 20.59 24.614 8.089 1.939-3.384 2.335-5.471 2.295-12.09-.083-13.403-2.681-18.158-13.929-25.486-6.762-4.405-7.923-5.614-4.547-4.731 2.828.74 10.025-1.286 10.025-2.822 0-.712-.914-3.428-2.031-6.034-1.118-2.606-1.901-5.131-1.741-5.61.498-1.494 5.772 7.461 5.772 9.8 0 1.854.828 2.395 5.049 3.3 7.996 1.715 10.912 1.402 13.12-1.405 1.077-1.369 4.067-3.119 6.644-3.89l4.687-1.402-4.892-2.135c-2.69-1.174-4.986-2.011-5.102-1.86s-.674 1.136-1.239 2.188c-1.002 1.862-1.046 1.859-1.675-.123-.477-1.504-1.749-2.162-4.869-2.519-2.323-.266-6.509-1.471-9.303-2.677-4.143-1.789-5.778-3.291-8.87-8.144-2.085-3.272-3.895-5.95-4.022-5.95s-.502 3.508-.833 7.796m103.632-.416c-1.555 1.309-3.868 4.234-5.141 6.5l-2.314 4.12 2.814.015c1.548.009 3.331.346 3.962.75s2.173 4.478 3.425 9.052c1.978 7.223 2.152 9.23 1.319 15.25l-.958 6.933h3.849c4.913 0 7.042-1.172 9.575-5.27 4.87-7.88 4.78-20.368-.21-29.305C336.73 120.991 328.224 114 325.964 114c-.446 0-2.083 1.071-3.637 2.38m-37.999 10.142c-8.689 6.849-9.074 27.574-.694 37.364 7.641 8.927 16.733 6.827 20.84-4.811 4.396-12.462-.532-28.003-10.492-33.084-4.984-2.543-5.812-2.497-9.654.531m-32.056 9.782c-3.882 4.034-6.272 7.621-6.272 9.415 0 .467 1.296 1.615 2.879 2.55 1.583.936 3.66 3.347 4.615 5.359 1.602 3.377 1.617 4.09.195 9.265-1.476 5.367-2.869 16.786-4.282 35.107-.83 10.754-2.094 14.903-7.205 23.654-6.094 10.435-9.143 13.346-13.977 13.346-2.186 0-5.87-.669-8.189-1.487-4.192-1.479-4.232-1.47-7.248 1.546-2.825 2.824-2.991 3.391-2.416 8.237 1.955 16.472 1.869 20.01-.769 31.704-1.427 6.325-3.348 13.207-4.27 15.293-1.504 3.404-1.519 3.95-.146 5.323s1.746 1.163 3.638-2.043c3.237-5.487 4.61-4.664 3.635 2.177-.451 3.163-.706 10.545-.567 16.405.219 9.209-.107 11.789-2.402 19-3.068 9.64-2.924 13.93.953 28.438 1.31 4.899 2.188 9.102 1.952 9.34-.786.794-2.114-1.381-3.93-6.433-.988-2.75-2.107-5.362-2.487-5.805-1.165-1.361-6.979 17.805-6.979 23.008 0 2.666 1.374 10.461 3.054 17.322 3.015 12.313 3.493 17.231 2.917 29.975-.246 5.453.397 8.594 3.992 19.5 2.357 7.15 4.615 13.675 5.017 14.5 2.408 4.941 14.193 7.082 19.575 3.556 2.701-1.77 2.729-1.876.868-3.271-1.323-.992-3.282-1.263-6.277-.868-5.391.71-12.637-.326-11.341-1.622.511-.511 4.448-1.195 8.748-1.52l7.819-.592 2.783 3.333c2.553 3.059 2.999 3.235 5.413 2.135 2.6-1.185 2.61-1.231.877-3.925-.965-1.499-3.429-4.751-5.476-7.226-5.639-6.819-13.565-20.827-15.575-27.528-1.198-3.992-1.797-9.287-1.806-15.972-.013-8.708.407-11.228 3.25-19.5 2.765-8.044 3.219-10.649 2.964-17l-.302-7.5-1.732 3.166c-.953 1.741-2.404 7.317-3.224 12.391s-1.707 9.439-1.97 9.702-.782-.739-1.155-2.225c-1.163-4.636.36-12.35 4.12-20.853 1.989-4.5 5.314-13.131 7.39-19.181s5.42-14.15 7.432-18c3.246-6.21 7.488-21.985 6.245-23.227-.23-.23-2.148.062-4.262.649-9.194 2.552-22.339.261-23.138-4.032-.265-1.429.355-1.389 5.498.355 6.97 2.365 13.767 1.954 20.565-1.241 4.33-2.036 4.676-2.485 5.267-6.841 1.072-7.909 1.204-8.082 7.479-9.827 5.325-1.48 6.167-2.105 9.071-6.734 3.823-6.094 5.085-4.532 1.757 2.175-2.01 4.049-3.054 4.975-7.343 6.508-2.75.983-5.841 2.784-6.87 4.001l-1.869 2.214 4.869 1.154c11.334 2.686 15.449 1.766 26.87-6.008 3.3-2.246 6.164-4.187 6.364-4.313s-.587-2.194-1.75-4.597c-1.162-2.402-2.114-5.28-2.114-6.395 0-2.328-2.816-10.656-5.948-17.591-1.804-3.993-1.98-5.349-1.105-8.5 1.69-6.084 1.285-8.654-1.836-11.644l-2.889-2.768-10.782 2.7c-11.077 2.774-17.877 2.904-22.497.431-3.412-1.825-1.36-2.46 8.39-2.596 9.389-.131 19.287-2.244 23.539-5.027 2.16-1.413 2.3-1.967 1.574-6.199-.439-2.556-.711-7.01-.604-9.897.197-5.317-.619-6.429-2.795-3.806-.914 1.101-1.74 1.197-3.478.406-1.784-.813-3.157-.591-6.326 1.026-3.402 1.736-4.23 1.845-5.193.684-.921-1.109-.546-1.512 1.911-2.051 3.484-.766 5.039-3.044 5.039-7.384 0-4.778 1.663-4.521 2.915.451 1.027 4.08 1.414 4.519 3.744 4.237 1.987-.239 3.274-1.58 5.47-5.701 3.177-5.963 3.652-11.372 1.769-20.152l-1.102-5.139-2.648 2.537c-1.456 1.395-4.296 3.224-6.31 4.066-2.897 1.21-3.552 1.953-3.134 3.553.427 1.632 1.354 2.023 4.802 2.023 2.781 0 5.096.686 6.633 1.967 2.808 2.339 1.737 2.527-6.017 1.056-4.161-.789-5.804-.666-8.546.642-3.393 1.618-6.576 1.311-6.576-.634 0-.567 1.039-1.031 2.309-1.031s3.182-.653 4.25-1.452c1.914-1.432 1.91-1.509-.255-5.553l-2.196-4.101 4.266.639c3.666.55 4.704.272 7.375-1.975 4.711-3.964 6.601-9.995 6.046-19.291-.675-11.31-4.788-18.109-13.76-22.749-2.621-1.355-2.881-1.248-6.763 2.786m14.966-.558c2.009 2.065 4.567 5.779 5.685 8.254 1.657 3.668 2.039 4.038 2.066 2 .018-1.375.303-4.129.632-6.121l.599-3.621-6.317-2.133-6.318-2.134zm-37.579 9.004c3.255 3.204 5.984 5.197 6.164 4.5.187-.721 1.915-1.25 4.083-1.25 3.392 0 3.859-.327 4.786-3.348l1.028-3.349-7.61-1.158c-4.186-.637-9.113-1.155-10.951-1.152l-3.341.007zm82.992 21.065c-1.356 2.099-2.041 16.667-.881 18.739.849 1.516 1.156.866 1.705-3.602.862-7.015.323-16.913-.824-15.137m-101.11 25.98c2.244 3.805 7.459 9.077 7.459 7.54 0-1.75-4.356-7.536-6.951-9.233l-2.451-1.602zm48.522 26.637c-1.252 1.334-2.09 2.986-1.862 3.671.244.732 1.362-.085 2.716-1.987 2.81-3.945 2.27-5.009-.854-1.684M223 219.954c-5.366 2.79-5.433 2.877-2.743 3.563 3.096.79 6.976-1.214 8.743-4.517 1.395-2.606.607-2.481-6 .954m21.306 8.578c2.835 2.494 5.694 3.26 5.694 1.525 0-1.449-4.2-4.061-6.473-4.025-1.833.028-1.758.268.779 2.5M262 238.107c-11.002 3.183-17.505 3.396-29.379.964-5.851-1.198-11.042-1.929-11.536-1.624-1.125.696-4.085 9.256-4.085 11.814 0 3.539 2.296 1.172 3.513-3.623.665-2.618 1.637-5.188 2.16-5.711 1.126-1.126 8.525 1.167 9.073 2.81.559 1.677-5.274 7.752-10.923 11.377-5.56 3.567-5.21 4.91.642 2.465 5.64-2.357 9.4-5.409 11.355-9.219l1.785-3.479 10.947-.321c11.633-.34 19.608-2.211 23.599-5.536 2.929-2.44 1.515-2.424-7.151.083m-4.55 11.354c-9.483 1.723-17.518 4.125-19.95 5.963l-2 1.512 2 .02c1.1.01 6.047-1.1 10.993-2.468 4.946-1.369 11.021-2.465 13.5-2.436l4.507.052-7.376 2.986c-7.08 2.868-16.714 8.653-15.849 9.518.228.228 4.908-1.577 10.399-4.012 5.492-2.435 11.583-5.094 13.536-5.91 3.041-1.271 3.48-1.858 3.054-4.085-.578-3.024-1.83-3.135-12.814-1.14m9.55 14.598c-1.925.47-9.575 1.551-17 2.402-16.701 1.915-18.614 2.325-17.247 3.692.724.724 3.752.721 9.895-.009 4.869-.579 12.002-1.337 15.852-1.685 6.299-.569 15.5-3.48 15.5-4.903 0-.739-2.708-.545-7 .503m-42.5 61.929c-1.1.479-3.189.903-4.643.942-2.93.078-3.877 1.666-3.817 6.402l.04 3.168 1.436-2.644c2.207-4.062 10.656-6.456 11.846-3.356.316.825 1.018 1.5 1.558 1.5 1.469 0-1.509-6.467-3.081-6.691-.736-.106-2.239.2-3.339.679M220 344.5c0 .993.993 1.5 2.941 1.5 3.327 0 4.855-1.481 2.471-2.395-2.801-1.075-5.412-.644-5.412.895m57.514 62.794c-1.059 2.494.104 8.752 1.975 10.623 1.408 1.408 1.494 1.224.912-1.93-1.751-9.486-2.102-10.541-2.887-8.693m-63.408 14.6c-1.991 1.991-5.106 8.305-5.106 10.351 0 1.988 3.21-1.726 5.645-6.532 2.775-5.476 2.57-6.928-.539-3.819"/></svg>
