<svg xmlns="http://www.w3.org/2000/svg" width="512" height="512" viewBox="0 0 512 512"><path fill="#333" fill-rule="evenodd" d="M320.952 123.253c-3.686 2.484-6.454 6.643-7.485 11.247-.593 2.645-.259 2.409 2.82-2 1.92-2.75 4.904-6.333 6.629-7.963l3.138-2.963 3.508 1.89c5.386 2.9 10.932 9.572 13.398 16.117 1.857 4.929 2.166 7.424 1.848 14.919-.604 14.214-4.876 21.029-13.946 22.245-4.217.566-4.89 1.634-2.005 3.179 2.672 1.43 8.227-.358 11.396-3.668 1.452-1.516 3.676-5.006 4.943-7.756 1.959-4.252 2.295-6.571 2.243-15.5-.076-13.117-2.426-19.919-9.375-27.127-4.264-4.424-5.114-4.873-9.232-4.873-3.05 0-5.632.738-7.88 2.253M280 134.255c-3.531 1.882-5.146 3.659-7.5 8.251-2.808 5.478-2.998 6.561-2.972 16.923.024 9.226.419 12.051 2.371 16.952C275.732 186.004 283.268 193 289.8 193c4.596 0 10.591-5.058 13.841-11.677 2.581-5.257 2.859-6.82 2.859-16.083 0-8.132.276-10.154 1.332-9.75.732.281 1.54.51 1.795.51s.168 1.575-.193 3.5c-.425 2.264-.271 3.5.436 3.5 1.718 0 2.502-4.887 1.232-7.676-.927-2.033-1.637-2.407-3.627-1.907-2.021.507-2.475.251-2.475-1.398 0-1.827.645-2.019 6.788-2.019 5.99 0 7.187.333 10.186 2.837l3.399 2.838-.937 5.906-.936 5.907-6.905 1.245c-3.798.684-6.998 1.362-7.112 1.506-.485.617 2.304 16.877 3.009 17.535.427.399.534-2.987.237-7.524-.498-7.608-.393-8.25 1.347-8.25 1.147 0 2.074.882 2.366 2.25l.903 4.25c.269 1.27.465.884.539-1.059.064-1.682.737-3.907 1.495-4.945 1.274-1.743 1.426-1.586 1.992 2.059.337 2.17 1.311 10.839 2.163 19.266 1.511 14.934 1.495 15.606-.612 26.644-2.461 12.885-3.04 13.535-12.059 13.535-4.749 0-22.085-5.082-24.313-7.128-.522-.48-2.097-.866-3.5-.859-2.077.01-1.437.653 3.45 3.469l6 3.457-4.882.031c-4.427.027-5.276-.365-9.128-4.22-4.303-4.305-4.763-5.559-6.958-18.96l-.608-3.709 7.288-2.242c12.884-3.963 17.347-2.609 24.54 7.448l3.253 4.547-3.584 2.215c-6.636 4.101-17.927 3.487-24.021-1.306-3.129-2.461-3.987-1.736-2.241 1.892.847 1.759 2.816 3.338 5.341 4.283 2.2.823 4.124 1.776 4.276 2.118.465 1.046 10.713-.72 13.977-2.408 3.875-2.004 7.247-6.237 7.247-9.096 0-1.209-1.521-3.958-3.38-6.109l-3.381-3.911 3.083-4.48c2.455-3.568 3.143-5.708 3.381-10.506L307 182.5l-2.021 6.841c-1.112 3.763-2.687 8.128-3.501 9.701l-1.479 2.86-4.249-1.929c-4.722-2.144-8.365-2.45-12.125-1.02-2.273.864-2.828.503-5.981-3.885-3.989-5.553-8.922-9.607-12.894-10.599-4.143-1.033-3.389.996 1.661 4.47 3.984 2.741 12.907 12.077 12.209 12.774-.156.157-2.385.677-4.952 1.157-3.335.623-4.668.547-4.668-.267 0-2.883-5.313-8.647-9.916-10.759-4.291-1.968-4.699-2.406-3.246-3.478 1.498-1.105 1.316-1.587-1.838-4.881-4.026-4.205-7.936-6.485-11.121-6.485-1.736 0-1.037.834 3.2 3.821 3.393 2.392 5.327 4.449 5.171 5.5-.137.924-.363 2.413-.5 3.311-.166 1.087 1.851 2.795 6.035 5.109 7.457 4.125 9.633 7.65 11.787 19.096.845 4.486 2.919 10.503 5.002 14.513 1.958 3.768 3.353 7.056 3.102 7.308s-4.752 1.334-10 2.406-11.485 2.784-13.859 3.803c-5.891 2.528-17.603 12.296-21.604 18.019l-3.287 4.7-4.247-4.043c-6.674-6.354-17.3-12.892-28.179-17.339-10.95-4.476-10.653-4.061-9.111-12.704.698-3.912.68-3.945-.82-1.5-.844 1.375-2.46 5.425-3.591 9-3.628 11.464-8.584 16.873-22.773 24.848-4.012 2.256-8.274 4.788-9.472 5.627-4.177 2.925-6.894 1.935-14.348-5.225-8.54-8.204-10.708-12.532-13.837-27.617l-2.42-11.671 2.644-5.731c2.131-4.62 2.723-7.621 3.052-15.481.377-8.994 1.39-11.963 2.814-8.25 1.039 2.706 6.689 1.625 8.421-1.61.919-1.717.79-1.778-1.525-.724-2.022.922-3.178.833-5.781-.443-1.789-.878-4.04-1.835-5.003-2.128-2.583-.786-2.126-4.154.885-6.522 3.144-2.474 10.482-2.842 12.328-.618 1.003 1.209.426 1.822-3.416 3.628-2.543 1.195-4.482 2.315-4.308 2.489.173.174 2.325-.136 4.781-.688 4.033-.906 4.635-.793 6.223 1.167 1.129 1.395 1.757 3.881 1.757 6.956 0 4.224-.414 5.149-3.526 7.882-2.099 1.842-5.157 3.357-7.555 3.74-2.407.385-3.852 1.102-3.591 1.783.24.627.972 3.715 1.625 6.863.654 3.148 1.924 6.459 2.823 7.358 2.237 2.237 2.635.508 1.307-5.681-2.476-11.546.039-10.218 2.987 1.577 1.942 7.774 5.255 13.504 8.95 15.482 1.066.57 3.693 3.614 5.837 6.763 2.145 3.149 4.914 6.626 6.154 7.726l2.254 2-2.258-4.5c-1.242-2.475-3.838-6.668-5.768-9.319l-3.51-4.819 3.823-3.915c4.31-4.414 6.55-5.278 18.049-6.96 8.681-1.27 11.029-2.159 10.019-3.792-.4-.648-1.836-.722-3.878-.2-1.783.456-5.433 1.129-8.111 1.496l-4.868.667.404-3.46.404-3.46-9.526 8.881c-5.239 4.884-9.806 8.881-10.148 8.881-1.48 0-7.697-16.676-7.873-21.117-.013-.34 1.776-1.808 3.976-3.264 3.863-2.556 4-2.837 4-8.158 0-5.861-2.911-15.6-5.526-18.489-2.262-2.501-6.591-3.082-13.144-1.766-4.619.927-5.796.895-6.152-.171-.964-2.893-7.514-8.991-10.833-10.086-7.454-2.46-14.889 1.386-19.047 9.853-2.619 5.334-2.796 6.497-2.763 18.198.032 11.28.286 13.042 2.608 18.054C93.677 223.838 100.675 230 107.256 230c1.277 0 3.972-.841 5.989-1.87l3.667-1.87 1.083 5.62c2.471 12.824 4.284 19.035 6.822 23.365 3.271 5.581 17.24 18.755 19.886 18.755 1.053 0 4.363-1.469 7.356-3.265s7.98-4.544 11.082-6.108c7.851-3.958 15.222-10.707 18.184-16.651l2.505-5.027 2.835 2.438 2.835 2.437.345 16.338c.19 8.986.044 19.966-.324 24.401l-.669 8.063-7.176 2.798c-3.947 1.539-11.563 4.376-16.926 6.306l-9.75 3.507v7.166c0 6.888.115 7.234 2.976 8.924l2.975 1.757 19.275-7.501c10.601-4.125 27.001-10.371 36.446-13.88l17.172-6.38 1.078 4.281c.593 2.355 1.078 6.75 1.078 9.767 0 6.116 1.465 8.372 6.032 9.285 2.232.447 3.293 1.69 5.292 6.201 1.375 3.104 2.959 7.35 3.52 9.437 1.641 6.107-.394 21.531-4.511 34.206-5.076 15.623-5.284 21.076-1.409 37.006 3.824 15.723 4.501 21.995 3.285 30.427-.989 6.853.931 20.185 4.113 28.567.836 2.2 1.82 5.8 2.187 8 .982 5.876 7.598 11.933 14.794 13.543 6.561 1.469 13.607.603 17.034-2.094 1.363-1.072 3.555-1.949 4.871-1.949 3.37 0 4.792-1.813 4.792-6.11 0-3.063-1.104-5.079-6.324-11.55-9.324-11.56-15.443-22.709-17.277-31.481-2.118-10.127-1.076-23.495 2.733-35.08 2.595-7.892 2.868-10.028 2.868-22.47v-13.748l5.133-15.031c2.824-8.266 5.265-15.184 5.425-15.371s1.249-.038 2.419.334c2.125.674 2.127.709 1.422 28.091-.597 23.2-.49 27.416.698 27.416 1.882 0 14.14-3.908 26.394-8.414 9.936-3.654 10.014-3.665 14.277-2.037 4.192 1.601 4.273 1.72 3.639 5.294-.357 2.011-.961 4-1.342 4.42-.38.42-11.013 4.597-23.628 9.283-35.03 13.011-36.878 13.787-37.234 15.636-.273 1.418 1.211 1.136 9.487-1.803 28.337-10.063 53.355-19.729 54.435-21.03.671-.809 1.423-3.915 1.671-6.903l.451-5.433-4.374-1.985c-2.405-1.091-5.576-1.994-7.047-2.006s-9.684 2.434-18.25 5.436L296 386.916v-51.424l10.53-2.697c5.792-1.484 16.581-4.592 23.976-6.906 13.094-4.099 13.474-4.298 14.571-7.624.62-1.878.922-4.492.67-5.81-.504-2.636-.381-2.599 5.561 1.673 2.094 1.506 5.111 3.025 6.705 3.375 3.669.806 4.359 3.033 3.081 9.946-.561 3.033-1.318 9.47-1.683 14.304l-.663 8.789 4.14 8.236c4.646 9.24 7.112 17.544 7.112 23.949 0 2.369-1.125 9.51-2.5 15.87s-2.5 13.784-2.5 16.498c0 4.494.29 5.111 3.25 6.916 2.654 1.618 5.045 1.982 13.033 1.985 8.572.004 10.425.329 14.961 2.628 7.656 3.879 19.295 4.464 26.776 1.345 6.108-2.546 7.98-4.312 7.98-7.525 0-3.971-3.537-7.052-10.21-8.894-5.477-1.512-7.15-2.608-12.946-8.484-3.66-3.712-8.463-8.18-10.671-9.929-5.2-4.119-6.034-7.941-6.744-30.914-.298-9.648-.966-19.782-1.485-22.519-1.28-6.749-1.187-17.419.237-27.272 1.145-7.915 1.094-8.411-1.614-15.838-3.034-8.317-4.909-10.289-14.217-14.948-2.833-1.418-7.273-4.416-9.868-6.661-2.594-2.246-8.826-6.144-13.849-8.664s-11.011-5.871-13.307-7.447c-6.044-4.149-8.251-4.782-21.927-6.289-12.164-1.341-12.362-1.404-15.727-4.972-3.013-3.194-5.672-4.635-5.672-3.073 0 .297.9 2.304 2.001 4.462 2.317 4.542 4.214 5.241 18.909 6.97 5.176.609 10.126 1.526 11 2.038s1.064.943.421.96c-1.724.044-11.923 9.633-14.247 13.394-1.103 1.784-2.506 6.595-3.118 10.69s-1.531 9.073-2.042 11.062l-.929 3.616-4.503-4.503-4.503-4.503-5.703.67c-10.128 1.191-10.148 1.203-9.525 5.936l.549 4.168-4.633-4.25-4.632-4.25-8.773.022c-11.683.029-16.056 1.971-20.425 9.072l-3.211 5.218-1.391-3.906c-.765-2.148-1.643-8.194-1.951-13.435-.594-10.094.295-13.261 5.986-21.336 1.111-1.575 2.303-4.253 2.65-5.949.56-2.735 1.285-3.279 6.385-4.793 6.774-2.011 10.685-4.359 10.685-6.416 0-1.904.344-1.975-7.638 1.577-7.395 3.292-9.014 4.151-14.825 7.868-3.321 2.125-3.586 2.569-2.162 3.611.894.653 1.625 1.77 1.625 2.481 0 1.642-7.033 14.287-7.619 13.7-.647-.647 1.328-5.416 2.557-6.176 1.146-.708 1.5-7.538.391-7.538-.369 0-1.556.788-2.637 1.75-1.935 1.723-1.942 1.703-.425-1.25 1.7-3.31 8.832-10.823 15.154-15.963 5.425-4.411 21.36-9.527 30.082-9.658l6.401-.096-1.605-2.449c-1.561-2.382-1.539-2.435.798-1.951 1.322.274 9.603.76 18.403 1.079 21.404.778 21.234.876 24.449-14.078 2.578-11.994 2.627-15.436.501-35.74-1.306-12.479-1.291-14.467.147-20 4.139-15.923-3.34-24.174-17.413-19.209l-4.067 1.435-3.023-5.357c-5.772-10.228-13.178-13.478-21.094-9.258m-.742 3.5c-5.929 5.783-7.799 11.334-7.662 22.745.193 16.11 8.24 28.5 18.509 28.5 4.438 0 10.298-6.252 12.357-13.184 4.692-15.799-1.494-33.242-14.386-40.561l-3.954-2.244zm-137.835 19.212c-3.06 1.238-8.334 6.832-9.021 9.567-1.168 4.653.25 4.735 2.926.168 1.494-2.549 4.304-5.845 6.244-7.324l3.527-2.691 4.2 2.299c10.232 5.6 14.685 13.333 15.455 26.838.65 11.39-1.239 18.328-6.392 23.48-2.336 2.337-4.646 3.701-6.279 3.71-1.42.007-3.605.287-4.854.622-3.265.875-.935 3.365 3.143 3.36 5.51-.006 13.168-6.446 15.051-12.656.36-1.188 1.2-2.612 1.866-3.165.889-.737 1.046-4.1.592-12.632-.574-10.779-.889-12.175-4.33-19.137-4.548-9.202-9.615-13.441-15.951-13.343-2.255.035-5.035.442-6.177.904m35.077.358c-3.472 1.583-6.105 4.403-5.075 5.433.39.39 2.456-.296 4.59-1.524 5.098-2.934 9.565-2.818 19.845.516 8.725 2.83 8.587 2.719 14.926 11.89 1.112 1.608 1.222 1.249.812-2.638-.619-5.873-3.04-7.891-13.688-11.413-10.206-3.375-17.324-4.128-21.41-2.264m17.767 7.901c-1.967 2.464-4.18 7.527-3.56 8.147 1.646 1.647 3.159.214 4.219-3.995 1.232-4.891 1.016-6.25-.659-4.152m-96.259 5.883c-11.114 8.051-13.23 31.165-4.198 45.872 7.443 12.12 19.861 12.003 25.264-.238 6.155-13.948 1.987-36.486-7.96-43.041-9.289-6.122-8.461-5.958-13.106-2.593m132.002 5.379c-1.003 1.208-.92 1.609.441 2.132 2.093.803 6.88-1.275 6.046-2.624-.931-1.508-5.089-1.192-6.487.492m-27.71 2.374c-6.959 2.404-13.027 6.726-16.663 11.865-2.462 3.481-4.108 4.6-9.324 6.335-5.423 1.805-8.313 4.027-8.313 6.393 0 .322 1.799-.332 3.997-1.453 2.198-1.122 6.023-2.317 8.5-2.657s4.503-.929 4.503-1.309c0-2.194 6.834-10.439 10.358-12.498 6.141-3.587 19.115-6.882 24.301-6.171 2.362.323 4.98.325 5.817.004 7.447-2.858-14.955-3.35-23.176-.509m34.2 8.692-3 1.464 4-.498c2.2-.274 5.35-.51 7-.524 2.307-.021 2.653-.251 1.5-.996-2.13-1.377-6.006-1.151-9.5.554m-12.785 1.506c-6.753 2.049-11.266 5.146-18.317 12.569-4.101 4.318-5.731 5.371-8.309 5.371-1.883 0-2.952.413-2.589 1 .34.55 2.504.997 4.809.993 3.654-.006 4.492-.449 6.539-3.455 4.863-7.142 11.45-12.238 17.596-13.613 3.167-.709 5.993-1.901 6.281-2.65.8-2.085.222-2.105-6.01-.215m6.588 11.806c-3.959 3.649-7.671 7.901-8.25 9.449s-1.069 5.823-1.088 9.5c-.021 3.899-.631 7.727-1.465 9.185-1.841 3.221-1.841 4 0 4 .825 0 1.5.675 1.5 1.5 0 1.097 1.143 1.502 4.25 1.509 2.476.005 6.337 1.036 9.25 2.469 6.64 3.266 13.5 3.286 13.5.038 0-.904-1.233-1.131-4.28-.788-3.165.357-5.893-.196-10.47-2.123-3.404-1.433-7.305-2.605-8.669-2.605-2.451 0-2.462-.04-.997-3.546 1.133-2.713 1.324-5.63.811-12.423l-.67-8.878 4.805-3.327c7.617-5.272 9.721-7.303 9.333-9.005-.264-1.153-2.335.229-7.56 5.045m13.197-5.291c2.804 2.119 6.035 2.772 9.25 1.87 2.592-.727 2.462-.843-2.25-2.012-2.75-.683-5.9-1.27-7-1.305l-2-.064zm2.57 9.668c.511 1.784.93 4.682.93 6.439 0 3.025-.243 3.232-4.54 3.876-4.844.727-7.479 3.256-10.88 10.442-1.553 3.28-1.351 3.17 3.207-1.745 4.14-4.466 5.555-5.34 9.515-5.883 2.559-.351 4.449-.966 4.201-1.368-.249-.401 3.024-1.304 7.273-2.006s8.094-1.606 8.547-2.01c1.443-1.288-3.864-1.98-7.401-.966-6 1.721-6.613 1.41-7.183-3.646-.462-4.097-1.828-6.314-3.919-6.361-.374-.008-.262 1.445.25 3.228m-37.629 6.19c-1.578 1.164-1.702 1.675-.663 2.727 1.536 1.557 4.538.059 5.045-2.517.399-2.025-1.782-2.129-4.382-.21M189 213.29c0 .256-.72 2.208-1.599 4.338l-1.599 3.872 2.865-2.713c2.728-2.583 3.067-2.654 7.055-1.477l4.19 1.237-3.423 4.326-3.423 4.326 3.581 5.65c6.17 9.736 8.627 11.542 6.362 4.678-1.155-3.5-1.068-3.74 2.967-8.117 4.573-4.961 4.745-6.747.697-7.226-2.095-.248-2.673-.854-2.673-2.801 0-1.863-.814-2.82-3.25-3.822-3.502-1.441-11.75-3.035-11.75-2.271m22.651 6.178c-.31.807-.114 1.746.436 2.086 1.089.673 3.913-1.259 3.913-2.676 0-1.481-3.75-.972-4.349.59m40.234 2.371c4.119 5.784 6.874 6.371 3.965.845-1.316-2.5-2.775-3.647-4.668-3.669-.922-.01-.711.837.703 2.824m-54.85 3.786c.02 1.031.605 2.9 1.301 4.153l1.265 2.279 3.949-3.487c3.406-3.006 3.657-3.492 1.825-3.528-1.169-.023-3.531-.323-5.25-.667-2.618-.524-3.119-.321-3.09 1.25m-25.216 8.105c-.912 1.542-3.532 4.934-5.823 7.537-3.75 4.261-3.948 4.733-1.982 4.733 2.771 0 7.509-5.023 9-9.544 1.537-4.655.858-6.202-1.195-2.726m38.431 1.932c-.687.278-1.25.917-1.25 1.421 0 1.27 1.957 1.075 5.5-.547l3-1.374-3-.002c-1.65-.001-3.562.225-4.25.502m24.75 8.217c0 1.12 5.867 3.587 6.656 2.799.325-.326.325-1.286-.001-2.135-.626-1.631-6.655-2.233-6.655-.664m-40.5 5.859c5.414 5.223 33.002 28.262 33.841 28.262 1.258 0-2.379-9.413-4.529-11.723-2.582-2.773-17.596-14.566-20.465-16.074-1.016-.534-3.872-1.291-6.347-1.682-4.463-.706-4.484-.696-2.5 1.217m83.331 1.641c-6.074 2.499-13.771 7.745-17.831 12.154l-2.5 2.715 2.5-.761c1.375-.418 4.525-2.162 7-3.874s8.55-5.236 13.5-7.831c7.476-3.92 8.492-4.72 6-4.727-1.65-.004-5.551 1.042-8.669 2.324m-131.82 3.108c-.679.818-.954 2.219-.611 3.113.505 1.317.906 1.391 2.112.39 1.604-1.331 2.052-4.99.61-4.99-.482 0-1.433.669-2.111 1.487M192 275.433v22.638l-4.44 1.903c-2.442 1.047-10.048 4.001-16.902 6.565l-12.461 4.661-.681 4.54c-.551 3.673-.331 4.889 1.152 6.367 1.775 1.77 2.458 1.583 21.832-5.981 11-4.295 27.367-10.448 36.371-13.674l16.371-5.865-.588-5.626c-.324-3.095-.904-6.449-1.29-7.454-.658-1.715-.748-1.702-1.454.207-.568 1.534-3.781 3.024-13.081 6.066l-12.329 4.032-.753-2.656c-.414-1.461-.513-8.281-.22-15.156l.531-12.5-6.029-5.353-6.029-5.353zm88.5-17.115c-8.038 2.859-15.483 6.682-13.013 6.682 2.866 0 26.276-8.532 25.231-9.195-1.765-1.122-2.313-1.009-12.218 2.513m46.155 5.119c-8.105 2.936-12.093 8.629-14.505 20.704-1.028 5.147-2.207 10.149-2.619 11.116-1.298 3.04 8.035 6.362 20.033 7.131 12.708.814 15.044 1.508 22.366 6.644 3.277 2.298 8.713 5.177 12.08 6.396 4.675 1.693 5.811 2.47 4.806 3.287-.724.588-2.216 1.236-3.316 1.438-1.768.326-2.038 1.294-2.327 8.358-.51 12.465 1.478 24.795 5.419 33.615 3.314 7.415 3.408 7.986 3.408 20.685 0 7.182-.459 14.265-1.019 15.739-.561 1.474-1.296 6.574-1.633 11.332-.81 11.411-.466 11.717 12.762 11.338 8.493-.244 10.582.045 15.866 2.192 3.347 1.36 9.138 2.774 12.869 3.141 6.086.6 7.317.399 11.969-1.959 2.852-1.445 5.186-3.037 5.186-3.538 0-1.55-4.93-4.882-8.297-5.609-1.762-.38-4.778-1.512-6.703-2.516-4.255-2.218-22.544-21.641-24.1-25.594-.615-1.56-1.501-12.189-1.97-23.619s-1.139-21.247-1.49-21.815c-1.04-1.683-.533-21.826.746-29.59 1.14-6.929 1.081-7.439-1.644-14.21-3.196-7.938-4.887-9.804-12.199-13.462-2.837-1.42-8.154-4.849-11.816-7.62-6.558-4.964-22.643-13.405-27.527-14.445-1.375-.293-4.23.095-6.345.861M207 277.737v12.085l9.5-3.129c5.225-1.721 9.5-3.435 9.5-3.808s-3.262-3.514-7.25-6.978a3526 3526 0 0 1-9.5-8.277l-2.25-1.979zm51-4.899-6.5 1.662 5.706.299c5.065.265 11.794-1.632 11.794-3.325 0-.866-4.42-.318-11 1.364m109.402 21.689 2.521 6.944-2.696 2.814c-3.252 3.394-5.583 3.076-12.218-1.667-6.929-4.951-7.374-5.166-6.201-2.989 2.491 4.623 10.331 9.371 15.473 9.371 3.437 0 7.719-4.912 7.719-8.854 0-3.779-1.896-7.837-4.957-10.607-2.117-1.916-2.11-1.815.359 4.988m-80.415 1.64c-3.68 3.68-3.641 5.22.41 16.333 1.534 4.21 2.568 9.192 2.592 12.5.051 6.758.995 8.61 3.627 7.113 1.036-.59 8.409-2.712 16.384-4.716 17.397-4.371 30.952-9.109 31.71-11.084.304-.792.03-2.587-.608-3.989-.877-1.923-.879-2.888-.009-3.936.967-1.165-.198-1.388-7.26-1.388-8.67 0-18.672-2.015-22.529-4.539-1.45-.948-2.949-1.158-4.409-.618-3.628 1.342-6.744.137-8.974-3.47-2.014-3.26-4.68-5.373-6.778-5.373-.544 0-2.414 1.425-4.156 3.167m-32.185-.227c-2.033.4-4.371 1.287-5.195 1.971-1.971 1.636-7.607 10.449-7.607 11.895 0 .623 1.962 4.183 4.36 7.913 6.392 9.939 8.19 17.062 7.774 30.781-.239 7.858.029 9.164 5.925 28.835 1.485 4.952-2.029.965-5.142-5.835l-2.746-6-1.191 3c-7.072 17.816-7.426 24.068-2.483 43.861 3.58 14.337 3.686 15.273 3.024 26.5l-.686 11.639 4.583 12.211c2.52 6.716 4.582 13.369 4.582 14.785 0 2.364.184 2.475 2.25 1.356 1.238-.669 6.3-1.545 11.25-1.945l9-.728 3.057 3.478c2.551 2.903 3.501 3.366 5.75 2.802 1.481-.372 2.693-1.194 2.693-1.827 0-.632-2.46-4.296-5.467-8.141-7.079-9.053-15.316-22.414-17.722-28.746-4.43-11.658-4.338-31.702.193-42.245 2.967-6.906 4.025-13.917 3.167-21-.653-5.393-.85-5.781-1.94-3.832-1.963 3.507-4.231 13.382-4.231 18.42 0 2.929-.559 5.131-1.5 5.912-1.299 1.078-1.5.578-1.5-3.741 0-7.996 1.744-15.243 5.525-22.952 4.181-8.525 10.464-26.742 10.471-30.357.002-1.403.544-3.09 1.204-3.75.933-.933.933-1.2 0-1.2-.743 0-1.205-1.618-1.212-4.25-.008-2.65-.927-5.85-2.442-8.5-2.449-4.284-2.307-5.211.454-2.968 2.542 2.064 4.172 4.54 5.571 8.459l1.341 3.759.044-6.568c.051-7.655-1.956-15.21-6.093-22.932-4.937-9.214-5.481-9.615-13.896-10.237-4.107-.303-9.131-.224-11.165.177M238 316.227c0 1.537 1.937 3.773 3.27 3.773.478 0 .725-1.008.55-2.24-.345-2.418-3.82-3.813-3.82-1.533m28.717 9.696c-2.313 2.157-3.93 4.197-3.594 4.533.335.336 2.808-1.412 5.494-3.883s4.303-4.511 3.594-4.533-3.181 1.725-5.494 3.883m1.283 27.41c0 2.087.916 2.516 3.748 1.759 4.106-1.098 4-3.092-.165-3.092-2.319 0-3.583.47-3.583 1.333m107.748 43.253c-1.311 1.31-.804 8.405.826 11.557.865 1.673 1.75 2.866 1.967 2.65.216-.216-.156-3.67-.827-7.674s-1.555-6.945-1.966-6.533m-113.753 41.419c-2.302 2.302-5.936 9.542-5.973 11.9-.04 2.552 3.818-1.878 6.616-7.597 2.914-5.957 2.667-7.613-.643-4.303m3.755 43.157c-3.75 1.37-3.46 2.337 1.27 4.229 5.004 2.002 9.99 2.05 14.563.139 3.1-1.295 3.39-1.713 2.433-3.5-.944-1.765-2.029-2.02-8.301-1.951-3.968.043-8.453.531-9.965 1.083"/></svg>
