<svg xmlns="http://www.w3.org/2000/svg" width="512" height="512" viewBox="0 0 512 512"><path fill="#333" fill-rule="evenodd" d="M402.223 103.015c-5.699 1.186-13.791 5.683-16.922 9.404-1.393 1.656-3.7 5.389-5.126 8.296-1.425 2.907-3.14 5.285-3.811 5.285-2.419 0-5.216 5.186-6.415 11.897-1.03 5.764-.993 7.309.237 9.773 1.407 2.821 1.349 9.881-.089 10.77-.374.231-5.715-.438-11.867-1.488-9.073-1.547-11.978-2.481-15.372-4.94-15.653-11.339-38.817-6.285-52.813 11.525-3.398 4.324-5.853 6.481-7.882 6.927-3.72.817-10.893 5.342-16.408 10.35-3.177 2.884-6.443 4.537-12.89 6.521-8.193 2.522-17.918 8.334-21.737 12.991-.906 1.105-2.873 1.674-5.783 1.674-9.07 0-16.388 5.262-21.554 15.5-1.665 3.3-3.179 6.167-3.364 6.371-.184.204-2.943-1.964-6.131-4.818-11.884-10.638-32.476-20.945-41.997-21.02-2.31-.018-6.46-.518-9.221-1.11-7.482-1.604-15.158.252-20.33 4.918-4.903 4.424-10.785 16.092-13.286 26.357-.979 4.016-2.884 9.061-4.233 11.211-9.065 14.438-12.865 26.95-16.17 53.243-3.051 24.276-7.127 35.381-15.559 42.389-2.2 1.828-6.925 6.116-10.5 9.528-9.702 9.26-14.887 12.794-24.805 16.904-9.484 3.932-15.61 8.183-16.457 11.42-.818 3.128 2.678 7.643 7.914 10.22 3.861 1.901 6.815 2.456 14.502 2.728 12.426.438 18.847-.956 29.544-6.414L82.374 375l11.563-.022c12.527-.024 18.81-1.769 20.982-5.827 1.732-3.235 1.255-11.394-1.099-18.796-2.986-9.392-2.715-15.884 1.144-27.355 5.031-14.955 9.569-23.282 17.339-31.811 4.511-4.951 8.268-10.337 10.551-15.126l3.546-7.437 2.55 5.472a922 922 0 0 1 4.885 10.695c1.782 3.985 3.382 5.836 6.754 7.812 5.986 3.508 8.411 6.824 8.411 11.5 0 3.112.573 4.258 3.036 6.08 1.67 1.234 5.683 5.956 8.919 10.492l5.884 8.249-1.286 4.787c-1.685 6.278-5.908 16.511-8.969 21.735-4.222 7.202-26.651 26.701-39.139 34.025-11.994 7.034-14.934 9.565-15.973 13.752-1.816 7.319 13.898 13.275 35.028 13.275 10.933 0 12.51-.239 17.731-2.686 3.152-1.477 8.713-4.814 12.357-7.414 4.208-3.003 8.992-5.384 13.112-6.526 8.597-2.384 12.42-4.715 14.611-8.908 2.093-4.005 1.829-10.725-.706-17.966-2.258-6.449-2.045-17.308.487-24.806l2.092-6.194h4.585c3.645 0 5.676.752 9.908 3.666 2.928 2.017 5.323 3.798 5.323 3.958s-2.025 1.478-4.5 2.929c-4.899 2.871-5.6 4.743-2.5 6.679 1.1.687 2 1.489 2 1.782 0 .294-2.704 2.548-6.009 5.01-5.987 4.459-8.217 8.15-6.165 10.202.748.748.766 1.669.056 2.994-1.633 3.053 1.798 7.462 5.368 6.898.412-.065.75.502.75 1.26 0 2.743 2.674 3.885 6.3 2.688 2.71-.894 3.953-.812 6.289.417 3.499 1.841 6.386 1.342 15.255-2.637 11.374-5.104 22.218-12.154 27.404-17.818 5.98-6.531 17.069-13.288 32.252-19.653 19.242-8.067 25.957-12.037 35.992-21.276 5.136-4.729 11.512-9.949 14.167-11.599s6.406-5.239 8.334-7.974c5.024-7.128 10.407-12.245 19.488-18.526 9.392-6.497 13.555-11.612 16.437-20.198 1.542-4.593 3.319-7.464 6.554-10.588 6.551-6.327 10.922-15.876 11.375-24.854.31-6.133-.027-8.074-2.241-12.91-1.716-3.747-2.606-7.422-2.606-10.757 0-2.786-.948-8.443-2.106-12.572-1.44-5.129-1.974-9.345-1.687-13.313l.421-5.807-2.299 2.16c-3.339 3.136-3.689 7.285-1.373 16.249 1.124 4.35 2.046 10.65 2.048 14 .002 4.306.584 7.042 1.986 9.341 3.615 5.93 4.377 11.267 2.599 18.21-1.75 6.83-7.035 15.554-11.906 19.652-2.03 1.709-3.726 4.529-4.79 7.968-3.123 10.095-5.991 13.611-17.475 21.428-11.055 7.525-11.636 7.525-7.937-.009 1.573-3.206 3.757-12.095 3.126-12.726-.265-.265-2.589 3.712-5.163 8.838s-5.399 10.415-6.275 11.753c-1.558 2.377-1.544 2.406.618 1.249 3.092-1.655 2.936.332-.427 5.404-4.023 6.07-7.46 9.461-11.86 11.703-2.2 1.121-7.632 5.513-12.072 9.76-8.868 8.484-15.484 12.54-31.65 19.404-20.754 8.813-28.787 13.682-38.278 23.202-5.911 5.929-9.065 8.063-20.276 13.717-7.302 3.683-14.277 6.676-15.5 6.651-2.201-.044-2.203-.06-.224-1.561 1.1-.834 5.825-3.84 10.5-6.678 13.162-7.993 7.214-7.365-8.654.914-7.243 3.778-13.514 6.528-13.935 6.11-.982-.976 1.056-2.449 12.089-8.736 4.95-2.82 10.575-6.438 12.5-8.039l3.5-2.911-3.009.834c-3.617 1.003-11.294 4.823-21.589 10.743-8.277 4.759-8.905 4.979-8.895 3.119.008-1.421 2.431-3.091 16.43-11.324 5.466-3.214 11.091-6.883 12.5-8.153l2.563-2.309-3 .637c-1.65.35-8.546 3.774-15.324 7.61-11.331 6.413-14.412 7.598-12.746 4.903.346-.561 6.375-4.852 13.397-9.537C247.091 356.063 254.625 350 252.696 350c-.359 0-3.925 1.53-7.924 3.4-6.464 3.022-10.179 4.064-13.226 3.711-.525-.061 2.85-2.086 7.5-4.501 4.65-2.414 9.804-5.112 11.454-5.994 2.088-1.116 5.735-1.619 12-1.654 10.502-.058 13.798-1.073 24.748-7.62 8.88-5.309 23.243-18.825 33.263-31.299 7.159-8.914 10.856-11.57 23.854-17.137 7.382-3.161 11.355-5.604 15.781-9.702 3.253-3.012 5.752-5.639 5.553-5.839-.2-.199-3.898 1.653-8.219 4.115s-8.017 4.316-8.213 4.12c-.66-.66 2.009-10.062 4.003-14.1 2.366-4.793 10.561-16.067 14.071-19.356l2.513-2.356 2.527 4.856c3.069 5.899 3.113 5.543.927-7.454-1.589-9.448-1.604-10.808-.184-16.257 1.478-5.674 1.468-5.874-.217-4.349-2.937 2.658-4.907 7.939-4.907 13.157 0 4.416-.291 5.071-2.75 6.194-7.758 3.544-20.109 1.847-27.961-3.84-9.281-6.724-12.405-15.069-8.484-22.669 3.699-7.169 14.939-15.941 25.565-19.952 6.784-2.56 16.63-12.002 16.63-15.946 0-2.866-.052-2.837-2.824 1.526-2.469 3.887-4.7 5.448-17.75 12.424-12.647 6.759-16.049 9.106-22.28 15.368-7.273 7.309-7.403 7.385-11.744 6.896-4.995-.563-10.569-4.328-13.483-9.108-4.802-7.874-.397-20.362 11.247-31.884 3.751-3.713 6.486-6.746 6.077-6.741-2.063.026-11.283 6.293-14.505 9.86-4.352 4.816-8.298 12.266-9.285 17.531-.594 3.166-1.582 4.347-5.996 7.17-2.906 1.86-8.478 4.456-12.382 5.771-5.452 1.836-8.377 3.601-12.617 7.61l-5.52 5.221-6.368-5.958c-3.503-3.277-9.106-7.325-12.452-8.997l-6.083-3.04 3.519-3.09c4.556-4 11.614-7.546 18.707-9.399 4.106-1.072 7.238-2.842 11.446-6.47 5.768-4.972 14.869-10.218 17.728-10.218.826 0 3.258-2.378 5.405-5.284 5.274-7.139 10.339-11.412 17.59-14.843 10.713-5.068 24.118-3.638 32.571 3.474 1.85 1.557 4.686 2.576 8.379 3.01 3.07.361 7.781 1.128 10.468 1.704l4.886 1.048-4.377 6.663c-3.594 5.473-8.357 15.631-8.357 17.825 0 1.464 2.17-1.252 5.853-7.329 2.256-3.722 5.843-8.755 7.97-11.183l3.869-4.414.679 4.247c1.065 6.66 4.973 13.356 9.713 16.64 3.576 2.478 5.216 2.942 10.406 2.942 8.673 0 20.815-6.051 30.149-15.024 3.704-3.562 7.062-6.476 7.46-6.476.399 0 2.788-2.89 5.309-6.423 3.611-5.061 4.567-7.236 4.507-10.25-.042-2.105.41-5.399 1.004-7.32 1.478-4.777 1.284-16.692-.346-21.259-4.767-13.359-21.895-21.949-37.35-18.733m-1.402 5.321c-8.282 2.335-15.81 10.04-18.872 19.317-.829 2.514-1.68 3.347-3.42 3.347-2.7 0-3.305 1.244-4.166 8.569-.415 3.529-.23 5.886.534 6.806.803.969.963 3.86.513 9.267-.975 11.688.71 18.405 6.004 23.93 4.002 4.177 4.553 4.428 9.693 4.428 7.688 0 18.017-5.104 25.959-12.828 3.344-3.252 7.06-6.452 8.257-7.112 3.081-1.697 8.155-9.996 8.292-13.56.063-1.65.85-5.682 1.75-8.96.899-3.278 1.635-7.134 1.635-8.569 0-5.045-3.131-13.11-6.565-16.911-6.396-7.08-19.644-10.535-29.614-7.724m-91.462 48.587c-3.05 1.859-4.922 3.876-4.209 4.532.192.178 2.324-1.202 4.736-3.066 4.779-3.693 4.482-4.521-.527-1.466m28.188 4.982c-1.654.647-1.443.866 1.375 1.429 1.83.366 4.059.652 4.953.634 1.363-.026 1.312-.268-.316-1.5-2.134-1.614-3.097-1.704-6.012-.563M322 167.5c0 .275.225.5.5.5s.5-.225.5-.5-.225-.5-.5-.5-.5.225-.5.5m24.031 1.5c-.012.275 1.1 2.714 2.473 5.419 1.373 2.706 2.496 6.445 2.496 8.309 0 2.006.408 3.138 1 2.772.55-.34 1-2.623 1-5.074 0-3.702-.588-5.087-3.473-8.191-1.91-2.054-3.483-3.51-3.496-3.235M288 181.596l-2.5 1.525 3.375-.56c1.856-.309 4.92-.561 6.809-.561 2.035 0 3.182-.407 2.816-1-.935-1.513-7.669-1.131-10.5.596m116.374 8.184c-4.581 4.13-9.926 11.001-9.157 11.771.636.635 13.783-13.262 13.783-14.57 0-1.367-.017-1.357-4.626 2.799m-144.078 5.474c-1.126 1.235-2.545 3.214-3.154 4.398-.979 1.902-.873 2.09.915 1.623 1.112-.291 2.685-2.116 3.496-4.056 1.806-4.324 1.429-4.914-1.257-1.965m117.204-.843c-5.252.741-7.371 1.38-6.168 1.859 2.938 1.171 8.455.846 12.2-.719 3.06-1.278 4.769-2.795 2.718-2.411-.413.078-4.35.649-8.75 1.271M357 197c0 .55 1.012 1.012 2.25 1.027 3.183.038 14.551 5.052 20.08 8.856 2.568 1.767 4.67 2.794 4.67 2.281 0-1.747-8.208-8.352-13.36-10.751-5.173-2.409-13.64-3.286-13.64-1.413m-228.715 6.898c-5.456 3.445-11.54 14.999-14.269 27.102-.682 3.025-3.194 8.88-5.583 13.011-8.027 13.883-11.189 24.723-13.935 47.774-1.819 15.265-3.866 24.342-7.604 33.715-2.253 5.649-3.892 7.965-8.494 12-3.137 2.75-10.022 8.974-15.3 13.832-7.123 6.555-11.53 9.721-17.098 12.282-21.536 9.907-22.222 10.663-13.535 14.914 5.262 2.574 6.18 2.702 16.379 2.282 10.582-.436 11.033-.554 22.04-5.756l11.237-5.311 11.733-.122c17.874-.185 19.741-2.342 14.938-17.266-3.212-9.978-2.893-18.384 1.169-30.855 5.007-15.368 9.398-23.508 17.674-32.756 7.526-8.409 12.271-16.699 14.164-24.744.582-2.475 1.575-9.9 2.206-16.5s1.506-12.371 1.945-12.825c1.313-1.358 2.397 6.158 2.498 17.325.094 10.47.108 10.526 4.757 19.5 2.564 4.95 5.12 10.21 5.679 11.688.571 1.509 3.342 4.198 6.316 6.129 2.914 1.892 7.098 5.356 9.298 7.697 3.367 3.584 3.644 4.172 1.75 3.716-1.736-.419-2.25-.107-2.25 1.364 0 1.048.464 1.906 1.032 1.906 1.958 0 7.977-2.905 11.352-5.479 3.261-2.488 3.41-2.9 4.078-11.301.831-10.457 2.876-20.989 6.058-31.191 1.526-4.893 2.444-10.58 2.622-16.243.253-8.059.088-8.916-2.184-11.391-4.888-5.322-16.693-14.034-24.492-18.073-10.806-5.598-16.338-7.056-29.638-7.811-10.303-.584-11.619-.459-14.543 1.387m166.024 2.05c-1.921 1.558-7.704 4.16-17.809 8.014-1.65.629-5.329 3.31-8.175 5.958l-5.175 4.814 2.585 3.633c1.421 1.998 3.118 3.633 3.77 3.633 1.74 0 12.656-7.247 17.482-11.607 3.547-3.205 10.8-14.945 9.828-15.908-.173-.172-1.301.486-2.506 1.463m-76.943 2.971c-7.979 4.865-12.36 14.945-13.075 30.081-.329 6.954-1.315 13.249-2.921 18.642-3.915 13.145-5.27 22.175-6.314 42.091-1.378 26.281-3.699 37.36-10.998 52.494-3.715 7.701-5.812 10.132-20.818 24.136-8.351 7.793-14.349 12.335-23.222 17.585-6.579 3.894-12.448 7.986-13.041 9.095-.944 1.763-.66 2.192 2.258 3.411 8.743 3.653 20.213 5.743 29.265 5.332 10.68-.485 15.224-2.256 26.027-10.145 4.999-3.651 9.167-5.835 12.706-6.656 12.385-2.875 14.777-6.023 12.369-16.281-1.641-6.989-2.064-7.501-4.425-5.365-3.115 2.819-3.315 1.866-.694-3.306 1.911-3.771 2.517-6.51 2.517-11.38 0-5.274.988-9.141 5.566-21.783 6.545-18.077 10.027-25.507 18.888-40.318 8.052-13.457 10.409-19.574 11.821-30.676 1.002-7.871.866-9.832-1.555-22.451-1.458-7.605-2.45-14.029-2.203-14.275s1.85 2.546 3.563 6.206c5.186 11.084 11.009 45.319 9.396 55.242l-.797 4.902-1.801-9.383c-.99-5.161-1.955-9.848-2.144-10.416s-1.322 1.629-2.516 4.883c-1.195 3.254-5.332 11.472-9.195 18.264S229 311.337 229 311.51c0 1.304 8.499 1.284 13.5-.034 7.765-2.045 13.78-5.623 20.031-11.913 8.118-8.17 16.476-26.455 16.466-36.023-.007-6.729-15.679-32.111-26.521-42.953-11.889-11.889-26.684-16.806-35.11-11.668m-75.251 2.581c-.046 1.65.352 3.675.885 4.5.799 1.236.955 1.148.885-.5-.046-1.1-.445-3.125-.885-4.5-.785-2.45-.802-2.44-.885.5m125.218-.833a.95.95 0 0 0 1.334 0c.366-.367.066-.667-.667-.667s-1.033.3-.667.667m121.026 1.256c-3.772 2.3-5.699 4.828-2.773 3.638 5.178-2.105 9.423-2.74 14.664-2.193 3.163.331 5.75.36 5.75.066 0-1.151-7.133-3.434-10.718-3.43-2.08.002-5.195.865-6.923 1.919m-91.888 4.321c-3.181 5.469-12.758 13.984-20.221 17.978-4.789 2.563-4.96 3.805-.685 4.966 2.601.707 3.357.344 6.645-3.195 2.04-2.196 4.628-3.993 5.75-3.993s2.04-.46 2.04-1.022 1.901-3.085 4.224-5.606c4.163-4.515 4.303-4.576 9.536-4.142 7.606.631 8.906 2.517 1.662 2.413-5.521-.08-5.829.059-9.603 4.311l-3.899 4.393 2.79 1.643c1.535.904 5.083 3.015 7.886 4.69l5.097 3.046 1.859-3.452c1.796-3.336 6.337-7.719 7.152-6.903.219.219-.975 2.563-2.653 5.209-1.678 2.647-3.051 5.091-3.051 5.432s4.676 5.428 10.39 11.304S331.59 264 331.358 264c-2.538 0-8.263-4.254-14.656-10.889-7.643-7.935-7.845-8.064-10.188-6.528-1.315.861-3.526 3.054-4.913 4.874l-2.523 3.308 5.801 4.069C310.901 263.058 318 270.219 318 272.07c0 .627.865.79 2.105.397 1.157-.368 4.15-.096 6.65.605 4.101 1.148 4.322 1.355 2.257 2.119-1.26.466-3.808.563-5.663.215-2.663-.5-3.259-.335-2.831.781.351.914-.706 2.009-2.988 3.097-3.87 1.846-4.352 1.334-1.96-2.08.863-1.233 1.426-2.858 1.25-3.612-.34-1.459-18.209-16.611-19.536-16.565-.431.015-2.274 1.263-4.096 2.774l-3.311 2.748 7.742 6.476c9.343 7.814 10.861 10.718 2.755 5.27-3.231-2.17-6.419-4.266-7.085-4.655-2.714-1.59 4.412 11.262 9.185 16.564 2.824 3.138 6.685 8.395 8.58 11.683l3.446 5.979 6-5.902c3.501-3.444 9.332-7.688 14-10.188l8-4.286 3-9.042c2.749-8.283 9.628-20.65 13.082-23.516 2.574-2.136 1.498-2.709-5.832-3.105-8.354-.45-16.103-3.564-22.204-8.921-4.233-3.716-8.521-11.832-8.536-16.156-.01-2.611-.25-2.75-4.76-2.759-5.031-.01-14.793-4.637-15.907-7.54-.893-2.327-1.661-1.73-4.872 3.793m108.777 14.112c-1.836 4.029-1.539 6.828.354 3.336.837-1.544 1.381-3.543 1.208-4.441-.227-1.176-.664-.867-1.562 1.105M165.475 241.5c10.536 20.934 16.494 31.994 16.51 30.644.033-2.988-3.282-13.797-5.697-18.573-3.068-6.066-8.937-14.747-13.233-19.571-2.772-3.113-2.505-2.285 2.42 7.5m119.775-3.916c-1.788 1.408-3.25 2.881-3.25 3.273 0 .391 1.462 1.562 3.25 2.602s5.104 3.393 7.369 5.229l4.119 3.338 4.156-4.155c2.285-2.285 4.031-4.252 3.881-4.37-2.002-1.566-14.422-8.498-15.212-8.49-.585.006-2.525 1.164-4.313 2.573m-65.867 1.365c-2.205 1.623-5.247 5.223-6.759 8-4.846 8.905-1.762 6.377 11.227-9.199 2.238-2.685-.005-2.082-4.468 1.199m-90.817 3.084c-5.704 6.098-8.56 12.228-9.223 19.792l-.498 5.675 3.421-7.629c1.881-4.196 5.302-11.058 7.603-15.25 2.3-4.191 4.008-7.621 3.794-7.621s-2.508 2.265-5.097 5.033m149.343 5.561c1.26 2.148 3.887 6.01 5.839 8.581l3.548 4.674 3.352-2.674c1.844-1.471 3.352-2.934 3.352-3.251 0-1.905-11.118-9.414-15.608-10.54l-2.774-.697zm57.098 3.96c.011 5.296 5.329 11.364 9.993 11.403 2.441.02 2.42-.042-.885-2.646-1.862-1.467-4.674-4.7-6.25-7.185-2.814-4.437-2.865-4.465-2.858-1.572m-105.279 6.772c-1.499 4.03-4.699 10.792-7.113 15.028-3.491 6.126-4.746 9.688-6.137 17.423-.961 5.348-2.342 11.411-3.069 13.473s-1.123 3.75-.881 3.75c1.11 0 5.587-10.526 7.762-18.25 1.324-4.701 3.359-10.055 4.522-11.899 5.788-9.175 7.493-13.475 7.97-20.101.268-3.713.303-6.75.079-6.75-.225 0-1.635 3.297-3.133 7.326m166.799-2.714c-4.936 2.476-9.194 4.721-9.463 4.99-1.154 1.155 8.748-1.04 11.936-2.645 3.52-1.772 9.149-7.005 7.424-6.902-.508.031-4.962 2.081-9.897 4.557M282.995 267c-.06 11.308-9.435 30.078-19.208 38.455-9.685 8.303-18.324 11.722-30.104 11.914l-8.068.131-3.261 8c-4.445 10.905-4.389 11.5 1.069 11.5 3.531 0 5.366.719 9.092 3.563 7.689 5.87 8.273 5.968 14.869 2.498 5.283-2.779 6.677-3.061 15.134-3.061 8.763 0 9.721-.214 16.149-3.599 7.618-4.012 21.167-13.805 21.96-15.872.283-.736.37-2.844.193-4.684l-.32-3.345-2.489 4.348c-1.369 2.391-3.753 5.002-5.298 5.8l-2.808 1.452 2.532-3.825c1.392-2.104 3.286-6.883 4.208-10.62 1.556-6.303 1.56-7.333.055-14.266-1.639-7.551-8.045-23.369-11.7-28.889l-1.987-3zm44.255-.027c-2.337 1.061-4.25 2.331-4.25 2.822 0 1.078 14.673-1.911 17.5-3.564 3.642-2.13-8.41-1.455-13.25.742M301.434 294c.311 1.375 1.233 5.425 2.051 9 .817 3.575 1.492 7.738 1.5 9.25q.027 5.354 4.018-.254l2.14-3.005-2.458-5.245c-1.352-2.886-3.664-6.821-5.137-8.746-2.393-3.127-2.618-3.234-2.114-1m56.325 10.998c-9.26 5.348-14.469 9.032-19.759 13.97l-4.5 4.201 7-3.69c9.439-4.976 27.874-18.585 24.962-18.427-.529.029-3.995 1.804-7.703 3.946M187 304.001c-1.375 1.077-3.94 2.444-5.701 3.039l-3.2 1.082 4.64 6.45c2.552 3.547 4.964 6.107 5.36 5.689.738-.779 2.435-18.279 1.769-18.239-.202.012-1.493.903-2.868 1.979m85.962 25.756c-1.945 1.418-4.356 3.665-5.358 4.993l-1.821 2.413 2.859-1.492c3.065-1.6 8.992-7.374 8.285-8.071-.235-.232-2.019.739-3.965 2.157m-171.326 13.291c-1.004 4.099-2.081 8.127-2.393 8.952-1.099 2.901 2.48-.896 4.139-4.392 1.134-2.39 1.361-4.503.823-7.657l-.744-4.355z"/></svg>
